<?xml version="1.0" encoding="utf-8"?>
<!-- Generator: Adobe Illustrator 16.0.0, SVG Export Plug-In . SVG Version: 6.00 Build 0)  -->
<!DOCTYPE svg PUBLIC "-//W3C//DTD SVG 1.1//EN" "http://www.w3.org/Graphics/SVG/1.1/DTD/svg11.dtd">
<svg version="1.1" id="Layer_1" xmlns="http://www.w3.org/2000/svg" xmlns:xlink="http://www.w3.org/1999/xlink" x="0px" y="0px"
	 width="321.5px" height="332px" viewBox="0 0 321.5 332" enable-background="new 0 0 321.5 332" xml:space="preserve">
<rect x="6.077" y="5.938" fill="#D4ECDF" stroke="#000000" stroke-miterlimit="10" width="309.59" height="318.611"/>
<g>
	<path d="M21.932,25.229c0,0.967-0.348,1.729-1.043,2.285c-0.696,0.557-1.664,0.835-2.904,0.835c-1.143,0-2.153-0.215-3.032-0.645
		v-2.109c0.723,0.322,1.334,0.549,1.835,0.681c0.5,0.132,0.958,0.198,1.373,0.198c0.498,0,0.88-0.095,1.146-0.286
		c0.266-0.19,0.399-0.474,0.399-0.85c0-0.21-0.059-0.396-0.176-0.56s-0.29-0.321-0.516-0.473c-0.228-0.151-0.69-0.393-1.388-0.725
		c-0.654-0.308-1.145-0.603-1.472-0.886s-0.588-0.613-0.784-0.989s-0.293-0.815-0.293-1.318c0-0.947,0.321-1.692,0.963-2.234
		c0.642-0.542,1.529-0.813,2.662-0.813c0.557,0,1.088,0.066,1.593,0.198c0.506,0.132,1.034,0.317,1.586,0.557l-0.732,1.765
		c-0.571-0.234-1.044-0.398-1.417-0.491c-0.374-0.093-0.741-0.139-1.103-0.139c-0.43,0-0.759,0.1-0.989,0.3
		s-0.344,0.461-0.344,0.784c0,0.2,0.046,0.375,0.139,0.524s0.24,0.293,0.443,0.432c0.203,0.14,0.683,0.39,1.439,0.751
		c1.001,0.479,1.687,0.958,2.058,1.439S21.932,24.53,21.932,25.229z"/>
	<path d="M31.139,24.093c0,1.333-0.352,2.375-1.055,3.127s-1.682,1.128-2.937,1.128c-0.786,0-1.479-0.172-2.08-0.517
		c-0.601-0.344-1.062-0.838-1.384-1.483s-0.483-1.396-0.483-2.256c0-1.338,0.349-2.378,1.047-3.12s1.68-1.113,2.944-1.113
		c0.786,0,1.479,0.171,2.08,0.513s1.062,0.833,1.384,1.472S31.139,23.234,31.139,24.093z M25.477,24.093
		c0,0.811,0.133,1.423,0.399,1.838s0.7,0.623,1.3,0.623c0.596,0,1.024-0.206,1.286-0.619c0.261-0.413,0.392-1.027,0.392-1.842
		c0-0.811-0.132-1.418-0.396-1.824s-0.696-0.608-1.296-0.608c-0.596,0-1.025,0.202-1.289,0.604
		C25.609,22.669,25.477,23.278,25.477,24.093z"/>
	<path d="M36.31,28.349c-2.549,0-3.823-1.399-3.823-4.197c0-1.392,0.347-2.455,1.04-3.19c0.693-0.734,1.687-1.102,2.981-1.102
		c0.947,0,1.797,0.186,2.549,0.557l-0.659,1.729c-0.352-0.142-0.679-0.257-0.981-0.348c-0.303-0.09-0.605-0.135-0.908-0.135
		c-1.162,0-1.743,0.825-1.743,2.476c0,1.602,0.581,2.402,1.743,2.402c0.43,0,0.828-0.057,1.194-0.172
		c0.366-0.114,0.732-0.294,1.099-0.538v1.912c-0.361,0.229-0.727,0.388-1.095,0.476C37.336,28.305,36.871,28.349,36.31,28.349z"/>
	<path d="M40.602,17.897c0-0.728,0.405-1.091,1.216-1.091s1.216,0.364,1.216,1.091c0,0.347-0.102,0.617-0.304,0.809
		c-0.203,0.193-0.506,0.29-0.912,0.29C41.007,18.996,40.602,18.629,40.602,17.897z M42.931,28.202h-2.234v-8.188h2.234V28.202z"/>
	<path d="M50.475,28.202l-0.432-1.113h-0.059c-0.376,0.474-0.763,0.802-1.161,0.985c-0.398,0.183-0.917,0.274-1.557,0.274
		c-0.786,0-1.405-0.225-1.856-0.674c-0.452-0.449-0.678-1.089-0.678-1.919c0-0.869,0.304-1.51,0.912-1.923
		c0.607-0.412,1.524-0.641,2.75-0.685l1.421-0.044v-0.359c0-0.83-0.425-1.245-1.274-1.245c-0.654,0-1.423,0.198-2.307,0.593
		l-0.74-1.509c0.942-0.493,1.987-0.74,3.135-0.74c1.099,0,1.941,0.239,2.527,0.718s0.879,1.206,0.879,2.183v5.457H50.475z
		 M49.815,24.408l-0.864,0.029c-0.649,0.02-1.133,0.137-1.45,0.352s-0.476,0.542-0.476,0.981c0,0.63,0.361,0.945,1.084,0.945
		c0.518,0,0.931-0.149,1.242-0.447c0.31-0.298,0.465-0.693,0.465-1.187V24.408z"/>
	<path d="M56.568,28.202h-2.234V16.806h2.234V28.202z"/>
	<path d="M72.484,28.202h-2.886l-4.658-8.101h-0.066c0.093,1.431,0.139,2.451,0.139,3.062v5.039h-2.029V17.494h2.864l4.651,8.02
		h0.051c-0.073-1.392-0.11-2.375-0.11-2.952v-5.068h2.043V28.202z"/>
	<path d="M78.709,28.349c-1.318,0-2.349-0.364-3.091-1.091s-1.113-1.758-1.113-3.091c0-1.372,0.343-2.433,1.029-3.182
		c0.686-0.75,1.634-1.125,2.845-1.125c1.157,0,2.058,0.33,2.703,0.989s0.967,1.57,0.967,2.732v1.084h-5.281
		c0.024,0.635,0.212,1.13,0.564,1.487s0.845,0.535,1.479,0.535c0.493,0,0.959-0.051,1.399-0.154s0.898-0.266,1.377-0.491v1.729
		c-0.391,0.195-0.808,0.34-1.252,0.436C79.891,28.301,79.349,28.349,78.709,28.349z M78.395,21.449c-0.474,0-0.845,0.15-1.113,0.45
		c-0.269,0.301-0.422,0.727-0.461,1.278h3.135c-0.01-0.552-0.154-0.978-0.432-1.278C79.244,21.6,78.868,21.449,78.395,21.449z"/>
	<path d="M87.315,26.569c0.391,0,0.859-0.085,1.406-0.256v1.663c-0.557,0.249-1.24,0.374-2.051,0.374
		c-0.894,0-1.544-0.226-1.952-0.678c-0.408-0.451-0.612-1.129-0.612-2.032v-3.948h-1.069v-0.945l1.23-0.747l0.645-1.729h1.428v1.743
		h2.292v1.677h-2.292v3.948c0,0.317,0.089,0.552,0.268,0.703C86.787,26.493,87.022,26.569,87.315,26.569z"/>
	<path d="M97.108,28.202l-0.63-2.864l-0.85-3.618h-0.051l-1.494,6.482h-2.402l-2.329-8.188h2.227l0.945,3.625
		c0.151,0.649,0.305,1.545,0.461,2.688h0.044c0.02-0.371,0.105-0.959,0.256-1.765l0.117-0.623l1.011-3.926h2.461l0.959,3.926
		c0.02,0.107,0.05,0.266,0.092,0.476c0.041,0.21,0.082,0.434,0.121,0.67s0.074,0.469,0.106,0.695
		c0.032,0.228,0.05,0.409,0.055,0.546h0.044c0.044-0.352,0.122-0.833,0.234-1.446s0.193-1.027,0.242-1.242l0.981-3.625h2.19
		l-2.358,8.188H97.108z"/>
	<path d="M110.658,24.093c0,1.333-0.352,2.375-1.055,3.127s-1.682,1.128-2.937,1.128c-0.786,0-1.479-0.172-2.08-0.517
		c-0.601-0.344-1.062-0.838-1.384-1.483s-0.483-1.396-0.483-2.256c0-1.338,0.349-2.378,1.047-3.12s1.68-1.113,2.944-1.113
		c0.786,0,1.479,0.171,2.08,0.513s1.062,0.833,1.384,1.472S110.658,23.234,110.658,24.093z M104.996,24.093
		c0,0.811,0.133,1.423,0.399,1.838s0.7,0.623,1.3,0.623c0.596,0,1.024-0.206,1.286-0.619c0.261-0.413,0.392-1.027,0.392-1.842
		c0-0.811-0.132-1.418-0.396-1.824s-0.696-0.608-1.296-0.608c-0.596,0-1.025,0.202-1.289,0.604
		C105.128,22.669,104.996,23.278,104.996,24.093z"/>
	<path d="M117.074,19.86c0.303,0,0.554,0.022,0.754,0.066l-0.168,2.095c-0.181-0.049-0.4-0.073-0.659-0.073
		c-0.713,0-1.269,0.183-1.666,0.549c-0.398,0.366-0.597,0.879-0.597,1.538v4.167h-2.234v-8.188h1.692l0.33,1.377h0.11
		c0.254-0.459,0.597-0.829,1.029-1.109C116.096,20,116.566,19.86,117.074,19.86z"/>
	<path d="M121.461,23.749l0.974-1.245l2.292-2.49h2.52l-3.252,3.552l3.45,4.636h-2.578l-2.358-3.318l-0.959,0.769v2.549h-2.234
		V16.806h2.234v5.083l-0.117,1.86H121.461z"/>
	<path d="M128.521,17.897c0-0.728,0.405-1.091,1.216-1.091s1.216,0.364,1.216,1.091c0,0.347-0.102,0.617-0.304,0.809
		c-0.203,0.193-0.506,0.29-0.912,0.29C128.927,18.996,128.521,18.629,128.521,17.897z M130.851,28.202h-2.234v-8.188h2.234V28.202z"
		/>
	<path d="M140.753,28.202h-2.234v-4.783c0-0.591-0.105-1.034-0.315-1.33c-0.21-0.295-0.544-0.443-1.003-0.443
		c-0.625,0-1.077,0.208-1.355,0.626c-0.278,0.417-0.417,1.109-0.417,2.076v3.853h-2.234v-8.188h1.707l0.3,1.047h0.125
		c0.249-0.396,0.592-0.694,1.029-0.897s0.934-0.304,1.491-0.304c0.952,0,1.675,0.258,2.168,0.773s0.74,1.258,0.74,2.23V28.202z"/>
	<path d="M150.179,20.014v1.135l-1.282,0.33c0.234,0.366,0.352,0.776,0.352,1.23c0,0.879-0.307,1.563-0.919,2.055
		c-0.613,0.49-1.464,0.736-2.553,0.736l-0.403-0.022l-0.33-0.037c-0.229,0.176-0.344,0.371-0.344,0.586
		c0,0.322,0.41,0.483,1.23,0.483h1.392c0.898,0,1.583,0.193,2.054,0.579s0.707,0.952,0.707,1.699c0,0.957-0.399,1.699-1.197,2.227
		c-0.799,0.527-1.945,0.791-3.439,0.791c-1.143,0-2.016-0.199-2.619-0.597c-0.603-0.398-0.904-0.956-0.904-1.674
		c0-0.493,0.154-0.906,0.461-1.238s0.759-0.569,1.355-0.71c-0.229-0.098-0.43-0.257-0.601-0.479s-0.256-0.458-0.256-0.707
		c0-0.312,0.09-0.572,0.271-0.78c0.181-0.207,0.442-0.411,0.784-0.611c-0.43-0.186-0.771-0.483-1.022-0.894s-0.377-0.894-0.377-1.45
		c0-0.894,0.291-1.584,0.872-2.073s1.411-0.732,2.49-0.732c0.229,0,0.501,0.021,0.817,0.062c0.314,0.042,0.516,0.072,0.604,0.092
		H150.179z M143.858,29.359c0,0.308,0.147,0.549,0.443,0.725c0.295,0.176,0.709,0.264,1.241,0.264c0.801,0,1.428-0.11,1.882-0.33
		s0.681-0.52,0.681-0.901c0-0.308-0.134-0.52-0.403-0.637s-0.684-0.176-1.245-0.176h-1.157c-0.41,0-0.753,0.096-1.029,0.289
		C143.996,28.787,143.858,29.042,143.858,29.359z M144.671,22.694c0,0.444,0.101,0.796,0.304,1.055
		c0.202,0.259,0.511,0.388,0.926,0.388c0.42,0,0.728-0.129,0.923-0.388s0.293-0.61,0.293-1.055c0-0.986-0.405-1.479-1.216-1.479
		C145.082,21.215,144.671,21.708,144.671,22.694z"/>
	<path d="M162.154,28.202l-0.776-2.549h-3.904l-0.776,2.549h-2.446l3.779-10.752h2.776l3.794,10.752H162.154z M160.836,23.749
		c-0.718-2.31-1.122-3.616-1.212-3.918s-0.155-0.542-0.194-0.718c-0.161,0.625-0.623,2.17-1.384,4.636H160.836z"/>
	<path d="M170.27,28.349c-0.962,0-1.716-0.349-2.263-1.047h-0.117c0.078,0.684,0.117,1.079,0.117,1.187v3.318h-2.234V20.014h1.816
		l0.315,1.062h0.103c0.522-0.811,1.296-1.216,2.322-1.216c0.967,0,1.724,0.374,2.271,1.121s0.82,1.785,0.82,3.113
		c0,0.874-0.128,1.633-0.385,2.278c-0.256,0.645-0.621,1.135-1.095,1.472S170.909,28.349,170.27,28.349z M169.61,21.647
		c-0.552,0-0.955,0.17-1.208,0.509s-0.386,0.899-0.396,1.681v0.242c0,0.879,0.13,1.509,0.392,1.89
		c0.261,0.381,0.675,0.571,1.241,0.571c1.001,0,1.501-0.825,1.501-2.476c0-0.806-0.124-1.41-0.37-1.813
		C170.524,21.849,170.138,21.647,169.61,21.647z"/>
	<path d="M179.762,28.349c-0.962,0-1.716-0.349-2.263-1.047h-0.117c0.078,0.684,0.117,1.079,0.117,1.187v3.318h-2.234V20.014h1.816
		l0.315,1.062h0.103c0.522-0.811,1.296-1.216,2.322-1.216c0.967,0,1.724,0.374,2.271,1.121s0.82,1.785,0.82,3.113
		c0,0.874-0.128,1.633-0.385,2.278c-0.256,0.645-0.621,1.135-1.095,1.472S180.401,28.349,179.762,28.349z M179.103,21.647
		c-0.552,0-0.955,0.17-1.208,0.509s-0.386,0.899-0.396,1.681v0.242c0,0.879,0.13,1.509,0.392,1.89
		c0.261,0.381,0.675,0.571,1.241,0.571c1.001,0,1.501-0.825,1.501-2.476c0-0.806-0.124-1.41-0.37-1.813
		C180.017,21.849,179.63,21.647,179.103,21.647z"/>
</g>
<rect x="14.264" y="38" fill="#8DCF88" width="65.66" height="278.947"/>
<rect x="86.731" y="38" fill="#8DCF88" width="220.678" height="139.474"/>
<circle fill="#FF8000" cx="101.333" cy="50.035" r="7.333"/>
<g>
	<path d="M98.761,70.667h-0.747v-3.023H94.63v3.023h-0.747v-6.425h0.747v2.733h3.384v-2.733h0.747V70.667z"/>
	<path d="M102.448,70.754c-0.712,0-1.274-0.217-1.685-0.65c-0.412-0.434-0.618-1.036-0.618-1.806c0-0.776,0.191-1.393,0.574-1.85
		c0.382-0.457,0.896-0.686,1.54-0.686c0.604,0,1.081,0.199,1.433,0.596s0.527,0.92,0.527,1.571v0.461h-3.318
		c0.015,0.565,0.157,0.995,0.428,1.288s0.653,0.439,1.145,0.439c0.519,0,1.031-0.108,1.538-0.325v0.65
		c-0.258,0.111-0.502,0.191-0.732,0.24C103.05,70.73,102.773,70.754,102.448,70.754z M102.25,66.373
		c-0.387,0-0.695,0.126-0.925,0.378c-0.23,0.252-0.366,0.601-0.407,1.046h2.518c0-0.46-0.103-0.812-0.308-1.057
		C102.924,66.496,102.631,66.373,102.25,66.373z"/>
	<path d="M106.192,70.667h-0.729v-6.838h0.729V70.667z"/>
	<path d="M108.468,70.667h-0.729v-6.838h0.729V70.667z"/>
	<path d="M114.172,68.254c0,0.785-0.198,1.398-0.593,1.839s-0.942,0.661-1.639,0.661c-0.431,0-0.813-0.101-1.147-0.303
		s-0.592-0.492-0.773-0.87s-0.272-0.82-0.272-1.327c0-0.785,0.196-1.396,0.589-1.834s0.938-0.657,1.635-0.657
		c0.674,0,1.209,0.224,1.606,0.672S114.172,67.489,114.172,68.254z M110.503,68.254c0,0.615,0.123,1.084,0.369,1.406
		s0.608,0.483,1.085,0.483s0.84-0.161,1.088-0.481c0.247-0.321,0.371-0.791,0.371-1.409c0-0.612-0.124-1.077-0.371-1.395
		c-0.248-0.318-0.613-0.477-1.097-0.477c-0.478,0-0.838,0.157-1.081,0.47S110.503,67.633,110.503,68.254z"/>
	<path d="M121.722,70.667l-0.883-2.826c-0.056-0.173-0.16-0.565-0.312-1.178h-0.035c-0.117,0.513-0.22,0.908-0.308,1.187
		l-0.91,2.817h-0.844l-1.314-4.816h0.765c0.311,1.21,0.547,2.131,0.709,2.764c0.163,0.633,0.256,1.059,0.279,1.279h0.035
		c0.032-0.167,0.084-0.383,0.156-0.648c0.071-0.265,0.134-0.475,0.187-0.63l0.883-2.764h0.791l0.861,2.764
		c0.164,0.504,0.275,0.927,0.334,1.27h0.035c0.012-0.105,0.043-0.268,0.094-0.488s0.357-1.402,0.917-3.546h0.756l-1.332,4.816
		H121.722z"/>
	<path d="M128.947,68.254c0,0.785-0.198,1.398-0.593,1.839s-0.942,0.661-1.639,0.661c-0.431,0-0.813-0.101-1.147-0.303
		s-0.592-0.492-0.773-0.87s-0.272-0.82-0.272-1.327c0-0.785,0.196-1.396,0.589-1.834s0.938-0.657,1.635-0.657
		c0.674,0,1.209,0.224,1.606,0.672S128.947,67.489,128.947,68.254z M125.277,68.254c0,0.615,0.123,1.084,0.369,1.406
		s0.608,0.483,1.085,0.483s0.84-0.161,1.088-0.481c0.247-0.321,0.371-0.791,0.371-1.409c0-0.612-0.124-1.077-0.371-1.395
		c-0.248-0.318-0.613-0.477-1.097-0.477c-0.478,0-0.838,0.157-1.081,0.47S125.277,67.633,125.277,68.254z"/>
	<path d="M132.423,65.762c0.214,0,0.406,0.018,0.576,0.053l-0.101,0.677c-0.199-0.044-0.375-0.066-0.527-0.066
		c-0.39,0-0.723,0.158-1,0.475c-0.276,0.316-0.415,0.71-0.415,1.182v2.584h-0.729V65.85h0.602l0.083,0.892h0.035
		c0.179-0.313,0.394-0.555,0.646-0.725S132.121,65.762,132.423,65.762z"/>
	<path d="M134.629,70.667h-0.729v-6.838h0.729V70.667z"/>
	<path d="M139.454,70.021h-0.04c-0.337,0.489-0.841,0.734-1.512,0.734c-0.63,0-1.12-0.215-1.47-0.646s-0.525-1.043-0.525-1.837
		s0.176-1.411,0.527-1.85s0.841-0.659,1.468-0.659c0.653,0,1.154,0.237,1.503,0.712h0.057l-0.031-0.347l-0.018-0.338v-1.96h0.729
		v6.838h-0.593L139.454,70.021z M137.995,70.144c0.498,0,0.859-0.135,1.083-0.407c0.225-0.271,0.336-0.708,0.336-1.312v-0.154
		c0-0.683-0.114-1.169-0.34-1.461c-0.228-0.291-0.59-0.437-1.088-0.437c-0.428,0-0.755,0.167-0.982,0.499
		c-0.227,0.333-0.34,0.802-0.34,1.409c0,0.615,0.113,1.08,0.338,1.393S137.559,70.144,137.995,70.144z"/>
	<path d="M141.585,70.201c0-0.398,0.176-0.598,0.527-0.598c0.17,0,0.301,0.051,0.394,0.154c0.092,0.103,0.138,0.25,0.138,0.444
		c0,0.188-0.047,0.333-0.141,0.438c-0.094,0.104-0.224,0.156-0.391,0.156c-0.152,0-0.278-0.046-0.378-0.138
		C141.635,70.563,141.585,70.412,141.585,70.201z M142.35,68.896h-0.461l-0.224-4.654h0.91L142.35,68.896z"/>
</g>
<g>
	<path d="M112.745,46.434h2.666c1.215,0,2.097,0.173,2.646,0.519s0.823,0.896,0.823,1.649c0,0.512-0.12,0.932-0.36,1.26
		s-0.56,0.525-0.958,0.592v0.059c0.543,0.121,0.935,0.348,1.175,0.68s0.36,0.773,0.36,1.324c0,0.781-0.282,1.391-0.847,1.828
		S116.918,55,115.95,55h-3.205V46.434z M114.561,49.826h1.055c0.492,0,0.849-0.076,1.069-0.229s0.331-0.404,0.331-0.756
		c0-0.328-0.12-0.563-0.36-0.706s-0.62-0.214-1.14-0.214h-0.955V49.826z M114.561,51.268V53.5h1.184c0.5,0,0.869-0.096,1.107-0.287
		s0.357-0.484,0.357-0.879c0-0.711-0.508-1.066-1.523-1.066H114.561z"/>
	<path d="M126.62,51.713c0,1.066-0.281,1.9-0.844,2.502s-1.346,0.902-2.35,0.902c-0.629,0-1.184-0.138-1.664-0.413
		s-0.85-0.671-1.107-1.187s-0.387-1.117-0.387-1.805c0-1.07,0.279-1.902,0.838-2.496s1.344-0.891,2.355-0.891
		c0.629,0,1.184,0.137,1.664,0.41s0.85,0.666,1.107,1.178S126.62,51.025,126.62,51.713z M122.09,51.713
		c0,0.648,0.106,1.139,0.319,1.471s0.56,0.498,1.04,0.498c0.477,0,0.819-0.165,1.028-0.495s0.313-0.821,0.313-1.474
		c0-0.648-0.105-1.135-0.316-1.459s-0.557-0.486-1.037-0.486c-0.477,0-0.82,0.161-1.031,0.483S122.09,51.061,122.09,51.713z"/>
	<path d="M131.741,48.326c0.773,0,1.379,0.302,1.816,0.905s0.656,1.431,0.656,2.481c0,1.082-0.226,1.92-0.677,2.514
		s-1.065,0.891-1.843,0.891c-0.77,0-1.373-0.279-1.811-0.838h-0.123L129.461,55h-1.365v-9.117h1.787v2.121
		c0,0.27-0.023,0.701-0.07,1.295h0.07C130.301,48.65,130.92,48.326,131.741,48.326z M131.167,49.756
		c-0.441,0-0.764,0.136-0.967,0.407s-0.309,0.72-0.316,1.345v0.193c0,0.703,0.104,1.207,0.313,1.512s0.54,0.457,0.993,0.457
		c0.367,0,0.659-0.169,0.876-0.507s0.325-0.829,0.325-1.474s-0.109-1.128-0.328-1.45S131.545,49.756,131.167,49.756z"/>
</g>
<rect x="93.131" y="78.795" fill="#43A834" width="37.07" height="13.204"/>
<g>
	<path d="M97.1,85.639c-0.125,0-0.259,0.038-0.401,0.114c-0.143,0.077-0.275,0.176-0.398,0.299v-0.79
		c0.235-0.249,0.526-0.373,0.875-0.373c0.167,0,0.323,0.018,0.47,0.055c0.147,0.037,0.306,0.091,0.477,0.164
		c0.294,0.125,0.553,0.188,0.776,0.188c0.121,0,0.253-0.037,0.396-0.109s0.277-0.174,0.4-0.304v0.79
		c-0.23,0.249-0.522,0.373-0.875,0.373c-0.15,0-0.294-0.015-0.431-0.044s-0.308-0.086-0.513-0.171
		C97.578,85.703,97.319,85.639,97.1,85.639z"/>
	<path d="M102.887,87.936h-1.056v-2.892l0.01-0.475l0.017-0.52c-0.175,0.175-0.297,0.291-0.366,0.345l-0.574,0.461l-0.509-0.636
		l1.61-1.282h0.868V87.936z"/>
	<path d="M107.737,85.437c0,0.873-0.143,1.519-0.429,1.938c-0.286,0.419-0.727,0.629-1.321,0.629c-0.577,0-1.011-0.216-1.304-0.649
		c-0.293-0.433-0.439-1.072-0.439-1.917c0-0.882,0.143-1.532,0.427-1.95c0.285-0.418,0.724-0.627,1.316-0.627
		c0.577,0,1.012,0.219,1.308,0.656C107.589,83.954,107.737,84.594,107.737,85.437z M105.293,85.437c0,0.613,0.053,1.052,0.159,1.318
		c0.106,0.265,0.285,0.398,0.535,0.398c0.246,0,0.424-0.134,0.533-0.403s0.164-0.707,0.164-1.312c0-0.613-0.055-1.053-0.166-1.321
		c-0.11-0.268-0.288-0.402-0.531-0.402c-0.249,0-0.426,0.134-0.533,0.402C105.347,84.384,105.293,84.824,105.293,85.437z"/>
	<path d="M110.434,87.936v-4.997h1.06v4.122h2.027v0.875H110.434z"/>
	<path d="M114.262,83.126c0-0.339,0.189-0.509,0.567-0.509s0.567,0.17,0.567,0.509c0,0.162-0.047,0.288-0.142,0.377
		c-0.094,0.09-0.236,0.135-0.425,0.135C114.451,83.639,114.262,83.468,114.262,83.126z M115.349,87.936h-1.042v-3.821h1.042V87.936z
		"/>
	<path d="M117.444,85.857l0.455-0.581l1.07-1.162h1.176l-1.518,1.658l1.61,2.164h-1.203l-1.101-1.548l-0.448,0.359v1.189h-1.042
		v-5.318h1.042v2.372l-0.055,0.868H117.444z"/>
	<path d="M122.513,88.004c-0.615,0-1.096-0.17-1.442-0.509s-0.52-0.82-0.52-1.442c0-0.64,0.16-1.135,0.48-1.485
		c0.32-0.35,0.763-0.525,1.328-0.525c0.54,0,0.96,0.154,1.261,0.461s0.451,0.732,0.451,1.275v0.506h-2.464
		c0.011,0.296,0.099,0.527,0.263,0.694s0.394,0.25,0.69,0.25c0.23,0,0.448-0.024,0.653-0.072s0.419-0.124,0.643-0.229v0.807
		c-0.182,0.091-0.377,0.159-0.584,0.204C123.064,87.981,122.811,88.004,122.513,88.004z M122.366,84.784
		c-0.221,0-0.394,0.07-0.52,0.21c-0.125,0.141-0.197,0.339-0.215,0.597h1.463c-0.004-0.257-0.072-0.456-0.202-0.597
		C122.762,84.854,122.587,84.784,122.366,84.784z"/>
	<path d="M127.585,86.801c0,0.392-0.136,0.69-0.408,0.896c-0.272,0.205-0.68,0.308-1.222,0.308c-0.278,0-0.515-0.019-0.711-0.057
		c-0.196-0.037-0.379-0.093-0.55-0.166V86.92c0.194,0.091,0.412,0.167,0.654,0.229c0.243,0.062,0.457,0.092,0.641,0.092
		c0.378,0,0.567-0.109,0.567-0.328c0-0.082-0.025-0.149-0.075-0.2c-0.05-0.052-0.137-0.109-0.26-0.175
		c-0.123-0.064-0.287-0.141-0.492-0.227c-0.294-0.123-0.51-0.237-0.648-0.342c-0.138-0.105-0.238-0.225-0.301-0.361
		c-0.062-0.135-0.094-0.302-0.094-0.5c0-0.339,0.132-0.602,0.395-0.788c0.264-0.186,0.637-0.279,1.12-0.279
		c0.46,0,0.908,0.1,1.343,0.301l-0.314,0.752c-0.191-0.082-0.37-0.149-0.537-0.202s-0.336-0.079-0.509-0.079
		c-0.308,0-0.461,0.083-0.461,0.25c0,0.093,0.049,0.174,0.149,0.243c0.099,0.068,0.316,0.17,0.651,0.304
		c0.298,0.121,0.517,0.233,0.656,0.338s0.242,0.226,0.308,0.362S127.585,86.612,127.585,86.801z"/>
</g>
<rect x="93.131" y="97.462" fill="#75B26B" width="205.535" height="34.872"/>
<circle fill="#FFFF00" cx="104.333" cy="108.369" r="7.333"/>
<g>
	<path d="M120.989,113.333l-0.621-2.039h-3.123l-0.621,2.039h-1.957l3.023-8.602h2.221l3.035,8.602H120.989z M119.934,109.771
		c-0.574-1.848-0.897-2.893-0.97-3.135s-0.124-0.434-0.155-0.574c-0.129,0.5-0.498,1.736-1.107,3.709H119.934z"/>
	<path d="M125.67,113.333h-1.787v-9.117h1.787V113.333z"/>
	<path d="M127.469,105.089c0-0.582,0.324-0.873,0.973-0.873s0.973,0.291,0.973,0.873c0,0.277-0.081,0.493-0.243,0.647
		s-0.405,0.231-0.729,0.231C127.793,105.968,127.469,105.675,127.469,105.089z M129.333,113.333h-1.787v-6.551h1.787V113.333z"/>
	<path d="M133.868,113.451c-2.039,0-3.059-1.119-3.059-3.357c0-1.113,0.277-1.964,0.832-2.552s1.35-0.882,2.385-0.882
		c0.758,0,1.438,0.148,2.039,0.445l-0.527,1.383c-0.281-0.113-0.543-0.206-0.785-0.278s-0.484-0.108-0.727-0.108
		c-0.93,0-1.395,0.66-1.395,1.98c0,1.281,0.465,1.922,1.395,1.922c0.344,0,0.662-0.046,0.955-0.138s0.586-0.235,0.879-0.431v1.529
		c-0.289,0.184-0.581,0.311-0.876,0.381S134.317,113.451,133.868,113.451z"/>
	<path d="M140.342,113.451c-1.055,0-1.879-0.291-2.473-0.873s-0.891-1.406-0.891-2.473c0-1.098,0.274-1.946,0.823-2.546
		s1.308-0.899,2.276-0.899c0.926,0,1.646,0.264,2.162,0.791s0.773,1.256,0.773,2.186v0.867h-4.225
		c0.02,0.508,0.17,0.904,0.451,1.189s0.676,0.428,1.184,0.428c0.395,0,0.768-0.041,1.119-0.123s0.719-0.213,1.102-0.393v1.383
		c-0.312,0.156-0.646,0.272-1.002,0.349S140.854,113.451,140.342,113.451z M140.09,107.931c-0.379,0-0.676,0.12-0.891,0.36
		s-0.338,0.581-0.369,1.022h2.508c-0.008-0.441-0.123-0.782-0.346-1.022S140.469,107.931,140.09,107.931z"/>
</g>
<g>
	<path d="M102.121,126.667h-0.664v-2.688h-3.008v2.688h-0.664v-5.711h0.664v2.43h3.008v-2.43h0.664V126.667z"/>
	<path d="M103.535,121.225c0-0.148,0.037-0.257,0.109-0.326s0.164-0.104,0.273-0.104c0.104,0,0.194,0.035,0.27,0.105
		s0.113,0.178,0.113,0.324s-0.038,0.254-0.113,0.326s-0.166,0.107-0.27,0.107c-0.109,0-0.201-0.036-0.273-0.107
		S103.535,121.371,103.535,121.225z M104.238,126.667h-0.648v-4.281h0.648V126.667z"/>
	<path d="M107.789,120.956h1.613c0.758,0,1.306,0.113,1.645,0.34s0.508,0.584,0.508,1.074c0,0.338-0.094,0.618-0.283,0.838
		s-0.464,0.363-0.826,0.428v0.039c0.867,0.148,1.301,0.604,1.301,1.367c0,0.51-0.172,0.909-0.518,1.195s-0.828,0.43-1.447,0.43
		h-1.992V120.956z M108.453,123.401h1.094c0.469,0,0.806-0.074,1.012-0.221s0.309-0.395,0.309-0.744c0-0.32-0.115-0.551-0.344-0.693
		s-0.594-0.213-1.094-0.213h-0.977V123.401z M108.453,123.963v2.137h1.191c0.461,0,0.808-0.089,1.041-0.268s0.35-0.458,0.35-0.838
		c0-0.354-0.119-0.615-0.357-0.781s-0.601-0.25-1.088-0.25H108.453z"/>
	<path d="M116.57,124.522c0,0.698-0.176,1.243-0.527,1.635s-0.837,0.588-1.457,0.588c-0.383,0-0.723-0.09-1.02-0.27
		s-0.526-0.438-0.688-0.773s-0.242-0.729-0.242-1.18c0-0.698,0.174-1.242,0.523-1.631s0.833-0.584,1.453-0.584
		c0.599,0,1.075,0.199,1.428,0.598S116.57,123.842,116.57,124.522z M113.308,124.522c0,0.547,0.109,0.963,0.328,1.25
		s0.541,0.43,0.965,0.43s0.747-0.143,0.967-0.428s0.33-0.703,0.33-1.252c0-0.544-0.11-0.958-0.33-1.24s-0.545-0.424-0.975-0.424
		c-0.424,0-0.745,0.139-0.961,0.418S113.308,123.97,113.308,124.522z"/>
	<path d="M119.699,122.315c0.562,0,1,0.192,1.311,0.576s0.467,0.928,0.467,1.631s-0.157,1.25-0.471,1.639s-0.75,0.584-1.307,0.584
		c-0.279,0-0.533-0.051-0.764-0.154s-0.424-0.261-0.58-0.475h-0.047l-0.137,0.551h-0.465v-6.078h0.648v1.477
		c0,0.331-0.01,0.627-0.031,0.891h0.031C118.657,122.528,119.105,122.315,119.699,122.315z M119.605,122.858
		c-0.443,0-0.762,0.127-0.957,0.381s-0.293,0.682-0.293,1.283s0.1,1.032,0.301,1.291s0.522,0.389,0.965,0.389
		c0.398,0,0.695-0.145,0.891-0.436s0.293-0.708,0.293-1.252c0-0.557-0.098-0.973-0.293-1.246S120.014,122.858,119.605,122.858z"/>
	<path d="M123.289,125.737l0.059,0.09c-0.068,0.26-0.166,0.563-0.293,0.908s-0.26,0.666-0.398,0.963h-0.488
		c0.07-0.271,0.148-0.605,0.232-1.004s0.144-0.717,0.178-0.957H123.289z"/>
	<path d="M129.578,126.667v-2.77c0-0.349-0.08-0.609-0.238-0.781s-0.408-0.258-0.746-0.258c-0.448,0-0.776,0.121-0.984,0.363
		s-0.312,0.642-0.312,1.199v2.246h-0.648v-4.281h0.527l0.105,0.586h0.031c0.133-0.211,0.319-0.375,0.559-0.49
		s0.506-0.174,0.801-0.174c0.516,0,0.904,0.125,1.164,0.373s0.391,0.646,0.391,1.193v2.793H129.578z"/>
	<path d="M131.503,121.225c0-0.148,0.037-0.257,0.109-0.326s0.164-0.104,0.273-0.104c0.104,0,0.194,0.035,0.27,0.105
		s0.113,0.178,0.113,0.324s-0.038,0.254-0.113,0.326s-0.166,0.107-0.27,0.107c-0.109,0-0.201-0.036-0.273-0.107
		S131.503,121.371,131.503,121.225z M132.207,126.667h-0.648v-4.281h0.648V126.667z"/>
	<path d="M135.292,126.745c-0.62,0-1.1-0.191-1.439-0.572s-0.51-0.921-0.51-1.619c0-0.716,0.172-1.27,0.518-1.66
		s0.836-0.586,1.475-0.586c0.206,0,0.412,0.022,0.617,0.066s0.367,0.096,0.484,0.156l-0.199,0.551
		c-0.143-0.057-0.299-0.105-0.469-0.143s-0.319-0.057-0.449-0.057c-0.87,0-1.305,0.555-1.305,1.664c0,0.526,0.106,0.93,0.318,1.211
		s0.527,0.422,0.943,0.422c0.357,0,0.723-0.077,1.098-0.23v0.574C136.088,126.67,135.728,126.745,135.292,126.745z"/>
	<path d="M139.199,126.745c-0.633,0-1.132-0.193-1.498-0.578s-0.549-0.92-0.549-1.605c0-0.69,0.17-1.238,0.51-1.645
		s0.796-0.609,1.369-0.609c0.537,0,0.961,0.176,1.273,0.529s0.469,0.818,0.469,1.396v0.41h-2.949
		c0.013,0.502,0.14,0.884,0.381,1.145s0.58,0.391,1.018,0.391c0.461,0,0.917-0.096,1.367-0.289v0.578
		c-0.229,0.099-0.446,0.17-0.65,0.213S139.488,126.745,139.199,126.745z M139.023,122.85c-0.344,0-0.618,0.112-0.822,0.336
		s-0.325,0.534-0.361,0.93h2.238c0-0.409-0.091-0.722-0.273-0.939S139.361,122.85,139.023,122.85z"/>
	<path d="M145.339,126.209c0.115,0,0.225-0.008,0.332-0.025s0.191-0.035,0.254-0.053v0.496c-0.07,0.034-0.174,0.062-0.311,0.084
		s-0.26,0.033-0.369,0.033c-0.828,0-1.242-0.436-1.242-1.309v-2.547h-0.613v-0.312l0.613-0.27l0.273-0.914h0.375v0.992h1.242v0.504
		h-1.242v2.52c0,0.258,0.061,0.456,0.184,0.594S145.126,126.209,145.339,126.209z"/>
	<path d="M150.476,124.522c0,0.698-0.176,1.243-0.527,1.635s-0.837,0.588-1.457,0.588c-0.383,0-0.723-0.09-1.02-0.27
		s-0.526-0.438-0.688-0.773s-0.242-0.729-0.242-1.18c0-0.698,0.174-1.242,0.523-1.631s0.833-0.584,1.453-0.584
		c0.599,0,1.075,0.199,1.428,0.598S150.476,123.842,150.476,124.522z M147.214,124.522c0,0.547,0.109,0.963,0.328,1.25
		s0.541,0.43,0.965,0.43s0.747-0.143,0.967-0.428s0.33-0.703,0.33-1.252c0-0.544-0.11-0.958-0.33-1.24s-0.545-0.424-0.975-0.424
		c-0.424,0-0.745,0.139-0.961,0.418S147.214,123.97,147.214,124.522z"/>
	<path d="M156.621,126.667v-2.77c0-0.349-0.08-0.609-0.238-0.781s-0.408-0.258-0.746-0.258c-0.451,0-0.779,0.123-0.986,0.367
		s-0.311,0.646-0.311,1.203v2.238h-0.648v-6.078h0.648v1.84c0,0.221-0.01,0.405-0.031,0.551h0.039
		c0.127-0.206,0.309-0.368,0.545-0.486s0.504-0.178,0.807-0.178c0.523,0,0.916,0.125,1.178,0.373s0.393,0.644,0.393,1.186v2.793
		H156.621z"/>
	<path d="M161.234,126.667l-0.129-0.609h-0.031c-0.213,0.268-0.426,0.45-0.639,0.545s-0.477,0.143-0.795,0.143
		c-0.424,0-0.757-0.109-0.998-0.328s-0.361-0.53-0.361-0.934c0-0.865,0.691-1.318,2.074-1.359l0.727-0.023v-0.266
		c0-0.336-0.072-0.584-0.217-0.744s-0.375-0.24-0.693-0.24c-0.357,0-0.76,0.109-1.211,0.328l-0.199-0.496
		c0.211-0.115,0.442-0.205,0.693-0.27s0.503-0.098,0.756-0.098c0.51,0,0.889,0.113,1.135,0.34s0.369,0.59,0.369,1.09v2.922H161.234z
		 M159.769,126.209c0.404,0,0.721-0.111,0.951-0.332s0.346-0.531,0.346-0.93v-0.387l-0.648,0.027
		c-0.516,0.018-0.887,0.098-1.115,0.24s-0.342,0.363-0.342,0.662c0,0.234,0.071,0.413,0.213,0.535S159.514,126.209,159.769,126.209z
		"/>
	<path d="M163.988,126.667l-1.625-4.281h0.695l0.922,2.539c0.208,0.594,0.331,0.979,0.367,1.156h0.031
		c0.029-0.138,0.119-0.424,0.271-0.857s0.494-1.379,1.025-2.838h0.695l-1.625,4.281H163.988z"/>
	<path d="M168.867,126.745c-0.633,0-1.132-0.193-1.498-0.578s-0.549-0.92-0.549-1.605c0-0.69,0.17-1.238,0.51-1.645
		s0.796-0.609,1.369-0.609c0.537,0,0.961,0.176,1.273,0.529s0.469,0.818,0.469,1.396v0.41h-2.949
		c0.013,0.502,0.14,0.884,0.381,1.145s0.58,0.391,1.018,0.391c0.461,0,0.917-0.096,1.367-0.289v0.578
		c-0.229,0.099-0.446,0.17-0.65,0.213S169.156,126.745,168.867,126.745z M168.691,122.85c-0.344,0-0.618,0.112-0.822,0.336
		s-0.325,0.534-0.361,0.93h2.238c0-0.409-0.091-0.722-0.273-0.939S169.029,122.85,168.691,122.85z"/>
	<path d="M172.945,122.385h0.695l0.938,2.441c0.206,0.557,0.333,0.959,0.383,1.207h0.031c0.034-0.133,0.105-0.36,0.213-0.682
		s0.461-1.311,1.061-2.967h0.695l-1.84,4.875c-0.182,0.482-0.395,0.824-0.639,1.025s-0.542,0.303-0.896,0.303
		c-0.198,0-0.393-0.022-0.586-0.066v-0.52c0.143,0.031,0.303,0.047,0.48,0.047c0.445,0,0.763-0.25,0.953-0.75l0.238-0.609
		L172.945,122.385z"/>
	<path d="M181.351,124.522c0,0.698-0.176,1.243-0.527,1.635s-0.837,0.588-1.457,0.588c-0.383,0-0.723-0.09-1.02-0.27
		s-0.526-0.438-0.688-0.773s-0.242-0.729-0.242-1.18c0-0.698,0.174-1.242,0.523-1.631s0.833-0.584,1.453-0.584
		c0.599,0,1.075,0.199,1.428,0.598S181.351,123.842,181.351,124.522z M178.089,124.522c0,0.547,0.109,0.963,0.328,1.25
		s0.541,0.43,0.965,0.43s0.747-0.143,0.967-0.428s0.33-0.703,0.33-1.252c0-0.544-0.11-0.958-0.33-1.24s-0.545-0.424-0.975-0.424
		c-0.424,0-0.745,0.139-0.961,0.418S178.089,123.97,178.089,124.522z"/>
	<path d="M183.097,122.385v2.777c0,0.349,0.08,0.609,0.238,0.781s0.408,0.258,0.746,0.258c0.448,0,0.775-0.123,0.982-0.367
		s0.311-0.645,0.311-1.199v-2.25h0.648v4.281h-0.535l-0.094-0.574h-0.035c-0.133,0.211-0.317,0.373-0.553,0.484
		s-0.504,0.168-0.807,0.168c-0.521,0-0.911-0.124-1.17-0.371s-0.389-0.643-0.389-1.188v-2.801H183.097z"/>
	<path d="M192.406,126.667v-2.77c0-0.349-0.08-0.609-0.238-0.781s-0.408-0.258-0.746-0.258c-0.451,0-0.779,0.123-0.986,0.367
		s-0.311,0.646-0.311,1.203v2.238h-0.648v-6.078h0.648v1.84c0,0.221-0.01,0.405-0.031,0.551h0.039
		c0.127-0.206,0.309-0.368,0.545-0.486s0.504-0.178,0.807-0.178c0.523,0,0.916,0.125,1.178,0.373s0.393,0.644,0.393,1.186v2.793
		H192.406z"/>
	<path d="M196.195,126.745c-0.633,0-1.132-0.193-1.498-0.578s-0.549-0.92-0.549-1.605c0-0.69,0.17-1.238,0.51-1.645
		s0.796-0.609,1.369-0.609c0.537,0,0.961,0.176,1.273,0.529s0.469,0.818,0.469,1.396v0.41h-2.949
		c0.013,0.502,0.14,0.884,0.381,1.145s0.58,0.391,1.018,0.391c0.461,0,0.917-0.096,1.367-0.289v0.578
		c-0.229,0.099-0.446,0.17-0.65,0.213S196.484,126.745,196.195,126.745z M196.019,122.85c-0.344,0-0.618,0.112-0.822,0.336
		s-0.325,0.534-0.361,0.93h2.238c0-0.409-0.091-0.722-0.273-0.939S196.357,122.85,196.019,122.85z"/>
	<path d="M200.828,122.307c0.19,0,0.361,0.016,0.512,0.047l-0.09,0.602c-0.177-0.039-0.333-0.059-0.469-0.059
		c-0.346,0-0.643,0.141-0.889,0.422s-0.369,0.631-0.369,1.051v2.297h-0.648v-4.281h0.535l0.074,0.793h0.031
		c0.159-0.279,0.35-0.494,0.574-0.645S200.56,122.307,200.828,122.307z"/>
	<path d="M203.949,126.745c-0.633,0-1.132-0.193-1.498-0.578s-0.549-0.92-0.549-1.605c0-0.69,0.17-1.238,0.51-1.645
		s0.796-0.609,1.369-0.609c0.537,0,0.961,0.176,1.273,0.529s0.469,0.818,0.469,1.396v0.41h-2.949
		c0.013,0.502,0.14,0.884,0.381,1.145s0.58,0.391,1.018,0.391c0.461,0,0.917-0.096,1.367-0.289v0.578
		c-0.229,0.099-0.446,0.17-0.65,0.213S204.238,126.745,203.949,126.745z M203.773,122.85c-0.344,0-0.618,0.112-0.822,0.336
		s-0.325,0.534-0.361,0.93h2.238c0-0.409-0.091-0.722-0.273-0.939S204.111,122.85,203.773,122.85z"/>
	<path d="M206.535,126.252c0-0.354,0.156-0.531,0.469-0.531c0.151,0,0.268,0.045,0.35,0.137s0.123,0.223,0.123,0.395
		c0,0.167-0.042,0.296-0.125,0.389s-0.199,0.139-0.348,0.139c-0.135,0-0.248-0.041-0.336-0.123S206.535,126.44,206.535,126.252z
		 M207.214,125.092h-0.41l-0.199-4.137h0.809L207.214,125.092z"/>
</g>
<rect x="93.131" y="137.462" fill="#75B26B" width="205.535" height="34.872"/>
<circle fill="#666666" cx="104.333" cy="148.369" r="7.333"/>
<g>
	<path d="M115.352,152.496c0-0.328,0.088-0.576,0.264-0.744s0.432-0.252,0.768-0.252c0.324,0,0.575,0.086,0.753,0.258
		s0.267,0.418,0.267,0.738c0,0.309-0.09,0.552-0.27,0.729s-0.43,0.267-0.75,0.267c-0.328,0-0.582-0.087-0.762-0.261
		S115.352,152.812,115.352,152.496z"/>
	<path d="M118.774,152.496c0-0.328,0.088-0.576,0.264-0.744s0.432-0.252,0.768-0.252c0.324,0,0.575,0.086,0.753,0.258
		s0.267,0.418,0.267,0.738c0,0.309-0.09,0.552-0.27,0.729s-0.43,0.267-0.75,0.267c-0.328,0-0.582-0.087-0.762-0.261
		S118.774,152.812,118.774,152.496z"/>
	<path d="M122.196,152.496c0-0.328,0.088-0.576,0.264-0.744s0.432-0.252,0.768-0.252c0.324,0,0.575,0.086,0.753,0.258
		s0.267,0.418,0.267,0.738c0,0.309-0.09,0.552-0.27,0.729s-0.43,0.267-0.75,0.267c-0.328,0-0.582-0.087-0.762-0.261
		S122.196,152.812,122.196,152.496z"/>
</g>
<g>
	<path d="M97.667,168.201c0-0.196,0.044-0.345,0.134-0.446c0.089-0.101,0.218-0.151,0.385-0.151c0.17,0,0.302,0.051,0.397,0.151
		c0.095,0.102,0.143,0.25,0.143,0.446c0,0.19-0.048,0.337-0.145,0.439s-0.229,0.154-0.396,0.154c-0.149,0-0.273-0.046-0.371-0.138
		C97.716,168.563,97.667,168.412,97.667,168.201z"/>
	<path d="M100.062,168.201c0-0.196,0.044-0.345,0.134-0.446c0.089-0.101,0.218-0.151,0.385-0.151c0.17,0,0.302,0.051,0.397,0.151
		c0.095,0.102,0.143,0.25,0.143,0.446c0,0.19-0.048,0.337-0.145,0.439s-0.229,0.154-0.396,0.154c-0.149,0-0.273-0.046-0.371-0.138
		C100.111,168.563,100.062,168.412,100.062,168.201z"/>
	<path d="M102.458,168.201c0-0.196,0.044-0.345,0.134-0.446c0.089-0.101,0.218-0.151,0.385-0.151c0.17,0,0.302,0.051,0.397,0.151
		c0.095,0.102,0.143,0.25,0.143,0.446c0,0.19-0.048,0.337-0.145,0.439s-0.229,0.154-0.396,0.154c-0.149,0-0.273-0.046-0.371-0.138
		C102.506,168.563,102.458,168.412,102.458,168.201z"/>
</g>
<rect x="86.731" y="182.334" fill="#8DCF88" width="220.678" height="98.333"/>
<circle fill="#666666" cx="97" cy="192.667" r="7.333"/>
<g>
	<path d="M109.352,199.162c0-0.328,0.088-0.576,0.264-0.744s0.432-0.252,0.768-0.252c0.324,0,0.575,0.086,0.753,0.258
		s0.267,0.418,0.267,0.738c0,0.309-0.09,0.552-0.27,0.729s-0.43,0.267-0.75,0.267c-0.328,0-0.582-0.087-0.762-0.261
		S109.352,199.479,109.352,199.162z"/>
	<path d="M112.774,199.162c0-0.328,0.088-0.576,0.264-0.744s0.432-0.252,0.768-0.252c0.324,0,0.575,0.086,0.753,0.258
		s0.267,0.418,0.267,0.738c0,0.309-0.09,0.552-0.27,0.729s-0.43,0.267-0.75,0.267c-0.328,0-0.582-0.087-0.762-0.261
		S112.774,199.479,112.774,199.162z"/>
	<path d="M116.196,199.162c0-0.328,0.088-0.576,0.264-0.744s0.432-0.252,0.768-0.252c0.324,0,0.575,0.086,0.753,0.258
		s0.267,0.418,0.267,0.738c0,0.309-0.09,0.552-0.27,0.729s-0.43,0.267-0.75,0.267c-0.328,0-0.582-0.087-0.762-0.261
		S116.196,199.479,116.196,199.162z"/>
</g>
<g>
	<path d="M91.667,213.867c0-0.196,0.044-0.345,0.134-0.446c0.089-0.101,0.218-0.151,0.385-0.151c0.17,0,0.302,0.051,0.397,0.151
		c0.095,0.102,0.143,0.25,0.143,0.446c0,0.19-0.048,0.337-0.145,0.439s-0.229,0.154-0.396,0.154c-0.149,0-0.273-0.047-0.371-0.139
		C91.716,214.229,91.667,214.078,91.667,213.867z"/>
	<path d="M94.062,213.867c0-0.196,0.044-0.345,0.134-0.446c0.089-0.101,0.218-0.151,0.385-0.151c0.17,0,0.302,0.051,0.397,0.151
		c0.095,0.102,0.143,0.25,0.143,0.446c0,0.19-0.048,0.337-0.145,0.439s-0.229,0.154-0.396,0.154c-0.149,0-0.273-0.047-0.371-0.139
		C94.111,214.229,94.062,214.078,94.062,213.867z"/>
	<path d="M96.458,213.867c0-0.196,0.044-0.345,0.134-0.446c0.089-0.101,0.218-0.151,0.385-0.151c0.17,0,0.302,0.051,0.397,0.151
		c0.095,0.102,0.143,0.25,0.143,0.446c0,0.19-0.048,0.337-0.145,0.439s-0.229,0.154-0.396,0.154c-0.149,0-0.273-0.047-0.371-0.139
		C96.506,214.229,96.458,214.078,96.458,213.867z"/>
</g>
<rect x="93.131" y="241.795" fill="#75B26B" width="205.535" height="34.872"/>
<circle fill="#FFFF00" cx="104.333" cy="252.701" r="7.333"/>
<g>
	<path d="M120.989,257.666l-0.621-2.039h-3.123l-0.621,2.039h-1.957l3.023-8.602h2.221l3.035,8.602H120.989z M119.934,254.104
		c-0.574-1.848-0.897-2.893-0.97-3.135s-0.124-0.434-0.155-0.574c-0.129,0.5-0.498,1.736-1.107,3.709H119.934z"/>
	<path d="M125.67,257.666h-1.787v-9.117h1.787V257.666z"/>
	<path d="M127.469,249.422c0-0.582,0.324-0.873,0.973-0.873s0.973,0.291,0.973,0.873c0,0.277-0.081,0.494-0.243,0.648
		s-0.405,0.23-0.729,0.23C127.793,250.301,127.469,250.008,127.469,249.422z M129.333,257.666h-1.787v-6.551h1.787V257.666z"/>
	<path d="M133.868,257.783c-2.039,0-3.059-1.119-3.059-3.357c0-1.113,0.277-1.963,0.832-2.551s1.35-0.883,2.385-0.883
		c0.758,0,1.438,0.148,2.039,0.445l-0.527,1.383c-0.281-0.113-0.543-0.205-0.785-0.277s-0.484-0.109-0.727-0.109
		c-0.93,0-1.395,0.66-1.395,1.98c0,1.281,0.465,1.922,1.395,1.922c0.344,0,0.662-0.045,0.955-0.137s0.586-0.236,0.879-0.432v1.529
		c-0.289,0.184-0.581,0.311-0.876,0.381S134.317,257.783,133.868,257.783z"/>
	<path d="M140.342,257.783c-1.055,0-1.879-0.291-2.473-0.873s-0.891-1.406-0.891-2.473c0-1.098,0.274-1.945,0.823-2.545
		s1.308-0.9,2.276-0.9c0.926,0,1.646,0.264,2.162,0.791s0.773,1.256,0.773,2.186v0.867h-4.225c0.02,0.508,0.17,0.904,0.451,1.189
		s0.676,0.428,1.184,0.428c0.395,0,0.768-0.041,1.119-0.123s0.719-0.213,1.102-0.393v1.383c-0.312,0.156-0.646,0.273-1.002,0.35
		S140.854,257.783,140.342,257.783z M140.09,252.264c-0.379,0-0.676,0.121-0.891,0.361s-0.338,0.58-0.369,1.021h2.508
		c-0.008-0.441-0.123-0.781-0.346-1.021S140.469,252.264,140.09,252.264z"/>
</g>
<rect x="93.131" y="224.463" fill="#43A834" width="37.07" height="13.204"/>
<g>
	<path d="M99.399,233.113c0-0.191,0.051-0.336,0.154-0.434s0.252-0.146,0.448-0.146c0.189,0,0.335,0.05,0.439,0.15
		c0.104,0.1,0.156,0.243,0.156,0.43c0,0.181-0.052,0.322-0.157,0.426s-0.25,0.156-0.438,0.156c-0.191,0-0.339-0.051-0.444-0.152
		S99.399,233.299,99.399,233.113z"/>
	<path d="M101.396,233.113c0-0.191,0.051-0.336,0.154-0.434s0.252-0.146,0.448-0.146c0.189,0,0.335,0.05,0.439,0.15
		c0.104,0.1,0.156,0.243,0.156,0.43c0,0.181-0.052,0.322-0.157,0.426s-0.25,0.156-0.438,0.156c-0.191,0-0.339-0.051-0.444-0.152
		S101.396,233.299,101.396,233.113z"/>
	<path d="M103.392,233.113c0-0.191,0.051-0.336,0.154-0.434s0.252-0.146,0.448-0.146c0.189,0,0.335,0.05,0.439,0.15
		c0.104,0.1,0.156,0.243,0.156,0.43c0,0.181-0.052,0.322-0.157,0.426s-0.25,0.156-0.438,0.156c-0.191,0-0.339-0.051-0.444-0.152
		S103.392,233.299,103.392,233.113z"/>
	<path d="M107.435,233.603v-4.997h1.06v4.122h2.027v0.875H107.435z"/>
	<path d="M111.263,228.793c0-0.339,0.189-0.509,0.567-0.509s0.567,0.17,0.567,0.509c0,0.162-0.047,0.288-0.142,0.378
		c-0.094,0.091-0.236,0.136-0.425,0.136C111.452,229.307,111.263,229.135,111.263,228.793z M112.35,233.603h-1.042v-3.821h1.042
		V233.603z"/>
	<path d="M114.445,231.524l0.455-0.581l1.07-1.162h1.176l-1.518,1.658l1.61,2.163h-1.203l-1.101-1.548l-0.448,0.358v1.189h-1.042
		v-5.318h1.042v2.372l-0.055,0.868H114.445z"/>
	<path d="M119.514,233.671c-0.615,0-1.096-0.17-1.442-0.509c-0.346-0.34-0.52-0.82-0.52-1.443c0-0.64,0.16-1.135,0.48-1.484
		c0.32-0.35,0.763-0.525,1.328-0.525c0.54,0,0.96,0.154,1.261,0.462s0.451,0.732,0.451,1.274v0.506h-2.464
		c0.011,0.297,0.099,0.527,0.263,0.694s0.394,0.249,0.69,0.249c0.23,0,0.448-0.023,0.653-0.071s0.419-0.124,0.643-0.229v0.807
		c-0.182,0.092-0.377,0.159-0.584,0.204C120.065,233.648,119.812,233.671,119.514,233.671z M119.367,230.451
		c-0.221,0-0.394,0.07-0.52,0.21c-0.125,0.141-0.197,0.339-0.215,0.597h1.463c-0.004-0.258-0.072-0.456-0.202-0.597
		C119.764,230.521,119.588,230.451,119.367,230.451z"/>
	<path d="M124.586,232.468c0,0.392-0.136,0.69-0.408,0.896c-0.272,0.205-0.68,0.308-1.222,0.308c-0.278,0-0.515-0.019-0.711-0.057
		c-0.196-0.037-0.379-0.093-0.55-0.165v-0.861c0.194,0.091,0.412,0.167,0.654,0.229c0.243,0.062,0.457,0.092,0.641,0.092
		c0.378,0,0.567-0.109,0.567-0.328c0-0.082-0.025-0.148-0.075-0.199c-0.05-0.052-0.137-0.109-0.26-0.175
		c-0.123-0.064-0.287-0.141-0.492-0.228c-0.294-0.123-0.51-0.236-0.648-0.342c-0.138-0.104-0.238-0.225-0.301-0.36
		c-0.062-0.136-0.094-0.302-0.094-0.501c0-0.339,0.132-0.602,0.395-0.787c0.264-0.186,0.637-0.279,1.12-0.279
		c0.46,0,0.908,0.101,1.343,0.301l-0.314,0.752c-0.191-0.082-0.37-0.148-0.537-0.201s-0.336-0.078-0.509-0.078
		c-0.308,0-0.461,0.082-0.461,0.249c0,0.093,0.049,0.175,0.149,0.243c0.099,0.068,0.316,0.17,0.651,0.304
		c0.298,0.12,0.517,0.233,0.656,0.339c0.139,0.104,0.242,0.225,0.308,0.361S124.586,232.279,124.586,232.468z"/>
</g>
<g>
	<path d="M97.667,270.867c0-0.195,0.044-0.344,0.134-0.445s0.218-0.152,0.385-0.152c0.17,0,0.302,0.051,0.397,0.152
		s0.143,0.25,0.143,0.445c0,0.191-0.048,0.338-0.145,0.439c-0.097,0.104-0.229,0.154-0.396,0.154c-0.149,0-0.273-0.047-0.371-0.139
		C97.716,271.23,97.667,271.078,97.667,270.867z"/>
	<path d="M100.062,270.867c0-0.195,0.044-0.344,0.134-0.445s0.218-0.152,0.385-0.152c0.17,0,0.302,0.051,0.397,0.152
		s0.143,0.25,0.143,0.445c0,0.191-0.048,0.338-0.145,0.439c-0.097,0.104-0.229,0.154-0.396,0.154c-0.149,0-0.273-0.047-0.371-0.139
		C100.111,271.23,100.062,271.078,100.062,270.867z"/>
	<path d="M102.458,270.867c0-0.195,0.044-0.344,0.134-0.445s0.218-0.152,0.385-0.152c0.17,0,0.302,0.051,0.397,0.152
		s0.143,0.25,0.143,0.445c0,0.191-0.048,0.338-0.145,0.439c-0.097,0.104-0.229,0.154-0.396,0.154c-0.149,0-0.273-0.047-0.371-0.139
		C102.506,271.23,102.458,271.078,102.458,270.867z"/>
</g>
<rect x="86.731" y="285.334" fill="#8DCF88" width="220.678" height="31.613"/>
<g>
	<path d="M193.738,302.341c0-0.196,0.044-0.345,0.134-0.446c0.089-0.101,0.218-0.151,0.385-0.151c0.17,0,0.302,0.051,0.397,0.151
		c0.095,0.102,0.143,0.25,0.143,0.446c0,0.19-0.048,0.337-0.145,0.439s-0.229,0.153-0.396,0.153c-0.149,0-0.273-0.046-0.371-0.138
		C193.787,302.703,193.738,302.552,193.738,302.341z"/>
	<path d="M196.133,302.341c0-0.196,0.044-0.345,0.134-0.446c0.089-0.101,0.218-0.151,0.385-0.151c0.17,0,0.302,0.051,0.397,0.151
		c0.095,0.102,0.143,0.25,0.143,0.446c0,0.19-0.048,0.337-0.145,0.439s-0.229,0.153-0.396,0.153c-0.149,0-0.273-0.046-0.371-0.138
		C196.182,302.703,196.133,302.552,196.133,302.341z"/>
	<path d="M198.528,302.341c0-0.196,0.044-0.345,0.134-0.446c0.089-0.101,0.218-0.151,0.385-0.151c0.17,0,0.302,0.051,0.397,0.151
		c0.095,0.102,0.143,0.25,0.143,0.446c0,0.19-0.048,0.337-0.145,0.439s-0.229,0.153-0.396,0.153c-0.149,0-0.273-0.046-0.371-0.138
		C198.577,302.703,198.528,302.552,198.528,302.341z"/>
</g>
<rect x="20.16" y="42.702" fill="#75B26B" width="53.869" height="12.298"/>
<rect x="20.16" y="58.368" fill="#75B26B" width="53.869" height="12.298"/>
<rect x="20.16" y="75.637" fill="#75B26B" width="53.869" height="12.298"/>
<rect x="20.16" y="91.313" fill="#75B26B" width="53.869" height="12.298"/>
<rect x="20.16" y="107.947" fill="#75B26B" width="53.869" height="12.298"/>
<rect x="20.16" y="125.216" fill="#75B26B" width="53.869" height="12.298"/>
<g>
</g>
<g>
</g>
<g>
</g>
<g>
</g>
<g>
</g>
<g>
</g>
</svg>
